<svg width="500" height="300" viewBox="0 0 500 300" fill="none" xmlns="http://www.w3.org/2000/svg">
  <!-- Background -->
  <rect width="500" height="300" fill="none"/>
  
  <!-- Ground -->
  <ellipse cx="250" cy="260" rx="180" ry="20" fill="#E2E2D5" />
  
  <!-- Rocks -->
  <path d="M210 220C210 220 190 230 180 220C170 210 160 190 180 180C200 170 215 180 220 190C225 200 220 220 210 220Z" fill="#847E6D" />
  <path d="M240 230C240 230 230 240 225 235C220 230 215 220 225 215C235 210 242 215 245 220C248 225 245 230 240 230Z" fill="#6E6A5A" />
  <path d="M270 225C270 225 260 235 255 230C250 225 245 215 255 210C265 205 272 210 275 215C278 220 275 225 270 225Z" fill="#847E6D" />
  
  <!-- Cactus 1 -->
  <rect x="300" y="160" width="10" height="60" rx="5" fill="#6B8E6B" />
  <rect x="285" y="180" width="10" height="30" rx="5" transform="rotate(-30 285 180)" fill="#6B8E6B" />
  <rect x="317" y="170" width="10" height="25" rx="5" transform="rotate(30 317 170)" fill="#6B8E6B" />
  
  <!-- Cactus 2 -->
  <rect x="165" y="180" width="8" height="40" rx="4" fill="#6B8E6B" />
  <rect x="173" y="190" width="8" height="20" rx="4" transform="rotate(30 173 190)" fill="#6B8E6B" />
  
  <!-- Small plants -->
  <circle cx="330" cy="230" r="5" fill="#6B8E6B" />
  <path d="M330 225L335 230L330 235L325 230L330 225Z" fill="#6B8E6B" />
  
  <circle cx="140" cy="230" r="5" fill="#6B8E6B" />
  <path d="M140 225L145 230L140 235L135 230L140 225Z" fill="#6B8E6B" />
  
  <!-- Desert bush -->
  <circle cx="190" cy="230" r="8" fill="#A8A284" />
  <circle cx="200" cy="228" r="6" fill="#A8A284" />
  <circle cx="185" cy="225" r="7" fill="#A8A284" />
  
  <!-- Small stones -->
  <circle cx="250" cy="240" r="4" fill="#A8A284" />
  <circle cx="270" cy="245" r="3" fill="#A8A284" />
  <circle cx="230" cy="243" r="5" fill="#A8A284" />
  
  <!-- Sun/Moon -->
  <circle cx="120" cy="100" r="15" fill="#D4BE85" />
</svg> 